<svg width="20" height="20" viewBox="0 0 20 20" fill="none" xmlns="http://www.w3.org/2000/svg">
<path d="M19.2177 18.9323C19.2177 19.2155 19.1053 19.4871 18.905 19.6873C18.7048 19.8875 18.4332 20 18.1501 20H1.06765C0.784493 20 0.512932 19.8875 0.312708 19.6873C0.112485 19.4871 2.56995e-07 19.2155 2.56995e-07 18.9323V7.71132C-0.00011262 7.54863 0.0369591 7.38806 0.108384 7.24188C0.179808 7.0957 0.283697 6.96777 0.412114 6.86788L8.95333 0.224948C9.14075 0.0791549 9.37142 0 9.60887 0C9.84631 0 10.077 0.0791549 10.2644 0.224948L18.8056 6.86788C18.934 6.96777 19.0379 7.0957 19.1094 7.24188C19.1808 7.38806 19.2178 7.54863 19.2177 7.71132V18.9323Z" fill="#0039FF"/>
<path d="M14.5853 14.6666C14.1709 14.8873 13.4676 15.0761 12.5643 15.2091C11.661 15.3421 10.5982 15.4133 9.51045 15.4138C8.42265 15.4142 7.35868 15.3439 6.45306 15.2117C5.54744 15.0794 4.84087 14.8912 4.42267 14.6709" stroke="white" stroke-width="2" stroke-linecap="round"/>
</svg>
