<svg width="32" height="24" viewBox="0 0 32 24" fill="none" xmlns="http://www.w3.org/2000/svg">
<g clip-path="url(#clip0_3352_5606)">
<g clip-path="url(#clip1_3352_5606)">
<rect width="32" height="24" fill="white"/>
<path fill-rule="evenodd" clip-rule="evenodd" d="M24.3359 20.9086L25.9131 18.5703L26.8485 19.2012L25.2713 21.5395L24.3359 20.9086Z" fill="black"/>
<path fill-rule="evenodd" clip-rule="evenodd" d="M26.1641 18.1938L27.7413 15.8555L28.6766 16.4864L27.0994 18.8247L26.1641 18.1938Z" fill="black"/>
<path fill-rule="evenodd" clip-rule="evenodd" d="M23.0234 20.0219L24.6006 17.6836L25.536 18.3145L23.9588 20.6528L23.0234 20.0219Z" fill="black"/>
<path fill-rule="evenodd" clip-rule="evenodd" d="M24.8516 17.311L26.4288 14.9727L27.3641 15.6035L25.7869 17.9418L24.8516 17.311Z" fill="black"/>
<path fill-rule="evenodd" clip-rule="evenodd" d="M21.7188 19.1391L23.296 16.8008L24.2313 17.4317L22.6541 19.77L21.7188 19.1391Z" fill="black"/>
<path fill-rule="evenodd" clip-rule="evenodd" d="M23.5469 16.4282L25.1241 14.0898L26.0594 14.7207L24.4822 17.059L23.5469 16.4282Z" fill="black"/>
<path fill-rule="evenodd" clip-rule="evenodd" d="M4.13064 15.8555L7.53741 20.9062L6.60209 21.5371L3.19531 16.4864L4.13064 15.8555Z" fill="black"/>
<path fill-rule="evenodd" clip-rule="evenodd" d="M7.27126 17.6836L8.84847 20.0219L7.91315 20.6528L6.33594 18.3145L7.27126 17.6836Z" fill="black"/>
<path fill-rule="evenodd" clip-rule="evenodd" d="M5.43532 14.9727L7.01253 17.311L6.07721 17.9418L4.5 15.6035L5.43532 14.9727Z" fill="black"/>
<path fill-rule="evenodd" clip-rule="evenodd" d="M6.74782 14.0898L10.1546 19.1406L9.21927 19.7715L5.8125 14.7207L6.74782 14.0898Z" fill="black"/>
<path fill-rule="evenodd" clip-rule="evenodd" d="M16.0443 17.6575C12.6198 17.6575 9.84375 14.8792 9.84375 11.452C9.84375 10.3451 10.1333 9.30599 10.6407 8.40625C10.4246 8.8387 10.3031 9.32669 10.3031 9.8431C10.3031 11.6202 11.7425 12.831 13.5182 12.831C14.2852 12.831 14.9176 12.6771 15.4702 11.9986C15.509 11.9468 15.5477 11.8959 15.5863 11.8459L15.702 11.6985C15.7404 11.6503 15.7789 11.603 15.8174 11.5566L15.9328 11.4202C16.6645 10.5745 17.4123 10.0729 18.4557 10.0729C20.1679 10.0729 21.7812 11.0024 21.556 13.4056C21.4764 14.2547 21.2133 15.0284 20.6584 15.589L20.6661 15.5889C19.5307 16.8585 17.8808 17.6575 16.0443 17.6575Z" fill="#0047A0"/>
<path fill-rule="evenodd" clip-rule="evenodd" d="M15.8296 5.47656C19.2541 5.47656 22.0302 8.25489 22.0302 11.6821C22.0302 12.789 21.7407 13.8281 21.2333 14.7278C21.4493 14.2954 21.5709 13.8074 21.5709 13.291C21.5709 11.5139 20.1314 10.3031 18.3558 10.3031C17.5888 10.3031 16.9564 10.457 16.4037 11.1355C15.5112 12.3261 14.6814 13.0611 13.4183 13.0611C11.706 13.0611 10.0928 12.1317 10.318 9.72853C10.3976 8.87938 10.6607 8.10569 11.2156 7.54505L11.2078 7.54515C12.3432 6.27556 13.9932 5.47656 15.8296 5.47656Z" fill="#CD2E3A"/>
<path fill-rule="evenodd" clip-rule="evenodd" d="M24.4822 6.07812L26.0594 8.41643L25.1241 9.04732L23.5469 6.70901L24.4822 6.07812Z" fill="black"/>
<path fill-rule="evenodd" clip-rule="evenodd" d="M22.6541 3.36328L24.2313 5.70159L23.296 6.33247L21.7188 3.99416L22.6541 3.36328Z" fill="black"/>
<path fill-rule="evenodd" clip-rule="evenodd" d="M23.9588 2.48047L27.3655 7.53121L26.4302 8.1621L23.0234 3.11135L23.9588 2.48047Z" fill="black"/>
<path fill-rule="evenodd" clip-rule="evenodd" d="M27.0994 4.30859L28.6766 6.6469L27.7413 7.27779L26.1641 4.93948L27.0994 4.30859Z" fill="black"/>
<path fill-rule="evenodd" clip-rule="evenodd" d="M25.2713 1.59766L26.8485 3.93596L25.9131 4.56685L24.3359 2.22854L25.2713 1.59766Z" fill="black"/>
<path fill-rule="evenodd" clip-rule="evenodd" d="M5.8125 8.41403L9.21927 3.36328L10.1546 3.99416L6.74782 9.04491L5.8125 8.41403Z" fill="black"/>
<path fill-rule="evenodd" clip-rule="evenodd" d="M4.5 7.53121L7.90677 2.48047L8.8421 3.11135L5.43532 8.1621L4.5 7.53121Z" fill="black"/>
<path fill-rule="evenodd" clip-rule="evenodd" d="M3.19531 6.6484L6.60209 1.59766L7.53741 2.22854L4.13064 7.27929L3.19531 6.6484Z" fill="black"/>
</g>
</g>
<defs>
<clipPath id="clip0_3352_5606">
<rect width="32" height="24" rx="3.2" fill="white"/>
</clipPath>
<clipPath id="clip1_3352_5606">
<rect width="32" height="24" fill="white"/>
</clipPath>
</defs>
</svg>
