<svg width="10" height="16" viewBox="0 0 10 16" fill="none" xmlns="http://www.w3.org/2000/svg">
<path d="M0.0946622 2.84349C0.543847 1.57554 1.74925 0.722656 3.09681 0.722656H6.41168C8.39605 0.722656 9.99947 2.33176 9.99947 4.31045C9.99947 5.59546 9.31148 6.78381 8.19705 7.42631L6.36051 8.4782C6.34913 9.21737 5.74074 9.82007 4.99589 9.82007C4.23967 9.82007 3.63128 9.21168 3.63128 8.45546V7.68786C3.63128 7.19888 3.89283 6.74969 4.31927 6.5052L6.83812 5.06099C7.10536 4.90747 7.27025 4.62317 7.27025 4.31613C7.27025 3.83852 6.88361 3.45757 6.41168 3.45757H3.09681C2.90349 3.45757 2.73291 3.57697 2.67037 3.75892L2.64762 3.82715C2.39745 4.53788 1.61279 4.90747 0.907744 4.65729C0.202694 4.40711 -0.172574 3.62246 0.0776046 2.91741L0.100348 2.84918L0.0946622 2.84349ZM3.17641 13.459C3.17641 12.9765 3.36811 12.5137 3.70933 12.1725C4.05054 11.8312 4.51334 11.6396 4.99589 11.6396C5.47845 11.6396 5.94124 11.8312 6.28246 12.1725C6.62368 12.5137 6.81538 12.9765 6.81538 13.459C6.81538 13.9416 6.62368 14.4044 6.28246 14.7456C5.94124 15.0868 5.47845 15.2785 4.99589 15.2785C4.51334 15.2785 4.05054 15.0868 3.70933 14.7456C3.36811 14.4044 3.17641 13.9416 3.17641 13.459Z" fill="black"/>
</svg>
