<svg width="27" height="24" viewBox="0 0 27 24" fill="none" xmlns="http://www.w3.org/2000/svg">
<path d="M18.4102 14.7838C18.4102 19.6134 14.495 23.5286 9.66542 23.5286C4.83581 23.5286 0.40625 24.243 0.40625 19.4134C0.40625 17.2555 1.70226 10.6506 2.99782 9.12545C4.60186 7.23719 6.99372 6.03906 9.66542 6.03906C14.495 6.03906 18.4102 9.95423 18.4102 14.7838Z" fill="#0039FF" fill-opacity="0.4"/>
<path d="M8.79294 9.54555C8.79294 14.3752 12.7081 18.2903 17.5377 18.2903C22.3673 18.2903 26.7969 19.0047 26.7969 14.1751C26.7969 12.0172 25.5009 5.4123 24.2053 3.88717C22.6013 1.99891 20.2094 0.800781 17.5377 0.800781C12.7081 0.800781 8.79294 4.71595 8.79294 9.54555Z" fill="#0039FF"/>
</svg>
