<svg width="52" height="9" viewBox="0 0 52 9" fill="none" xmlns="http://www.w3.org/2000/svg">
<path d="M6.88155 5.71758C6.88155 7.41478 5.5057 8.79063 3.8085 8.79063C2.11131 8.79063 0.554688 9.04169 0.554688 7.34449C0.554688 6.58617 1.01013 4.26509 1.46541 3.72914C2.02909 3.06557 2.86963 2.64453 3.8085 2.64453C5.5057 2.64453 6.88155 4.02038 6.88155 5.71758Z" fill="#0039FF" fill-opacity="0.4"/>
<path d="M3.50126 3.87774C3.50126 5.57494 4.87711 6.95079 6.57431 6.95079C8.27151 6.95079 9.82812 7.20184 9.82812 5.50465C9.82812 4.74633 9.37269 2.42525 8.91741 1.88929C8.35372 1.22573 7.51319 0.804688 6.57431 0.804688C4.87711 0.804688 3.50126 2.18054 3.50126 3.87774Z" fill="#0039FF"/>
<path d="M16.036 8.85919C15.324 8.85919 14.796 8.65919 14.452 8.25919C14.116 7.85919 13.948 7.31119 13.948 6.61519V3.95119H13V2.45119L15.628 0.746094V0.747193V2.45119H17.548V3.95119H15.628V6.26719C15.628 6.47519 15.652 6.65519 15.7 6.80719C15.756 6.95919 15.844 7.07919 15.964 7.16719C16.092 7.24719 16.264 7.2872 16.48 7.2872C16.672 7.2872 16.832 7.25919 16.96 7.20319C17.096 7.13919 17.208 7.0712 17.296 6.9992L17.824 8.29519C17.656 8.43119 17.468 8.5432 17.26 8.6312C17.06 8.71119 16.856 8.76719 16.648 8.79919C16.44 8.83919 16.236 8.85919 16.036 8.85919Z" fill="black"/>
<path d="M21.3625 8.85919C20.6985 8.85919 20.1345 8.72719 19.6705 8.46319C19.2065 8.19919 18.8505 7.82719 18.6025 7.34719C18.3545 6.85919 18.2305 6.29119 18.2305 5.6432C18.2305 4.9872 18.3585 4.41519 18.6145 3.92719C18.8705 3.43119 19.2305 3.04319 19.6945 2.76319C20.1665 2.48319 20.7225 2.34319 21.3625 2.34319C21.8425 2.34319 22.2625 2.42319 22.6225 2.58319C22.9905 2.74319 23.2985 2.96719 23.5465 3.25519C23.8025 3.54319 23.9905 3.87919 24.1105 4.26319C24.2385 4.63919 24.2985 5.04719 24.2905 5.4872C24.2905 5.5992 24.2865 5.70719 24.2785 5.81119C24.2705 5.91519 24.2545 6.01919 24.2305 6.12319H19.8985C19.9225 6.36319 19.9905 6.58319 20.1025 6.78319C20.2145 6.98319 20.3705 7.1432 20.5705 7.2632C20.7785 7.3752 21.0345 7.4312 21.3385 7.4312C21.5385 7.4312 21.7225 7.41119 21.8905 7.37119C22.0585 7.32319 22.2025 7.2512 22.3225 7.1552C22.4425 7.0592 22.5265 6.9472 22.5745 6.81919H24.2305C24.1265 7.29119 23.9305 7.67919 23.6425 7.98319C23.3625 8.28719 23.0225 8.51119 22.6225 8.65519C22.2225 8.79119 21.8025 8.85919 21.3625 8.85919ZM19.9345 4.9472H22.6825C22.6745 4.73119 22.6185 4.53119 22.5145 4.34719C22.4185 4.15519 22.2705 4.00319 22.0705 3.89119C21.8785 3.77119 21.6305 3.71119 21.3265 3.71119C21.0225 3.71119 20.7665 3.77119 20.5585 3.89119C20.3585 4.01119 20.2065 4.16719 20.1025 4.35919C20.0065 4.54319 19.9505 4.73919 19.9345 4.9472Z" fill="black"/>
<path d="M25.3248 8.7752V2.45119H26.8968L26.9808 3.18319C27.1568 2.96719 27.3568 2.79919 27.5808 2.67919C27.8128 2.55119 28.0448 2.46319 28.2768 2.41519C28.5168 2.36719 28.7328 2.34319 28.9248 2.34319C29.5328 2.34319 30.0048 2.47519 30.3408 2.73919C30.6848 3.00319 30.9288 3.35919 31.0728 3.80719C31.2248 4.24719 31.3008 4.73919 31.3008 5.28319V8.7752H29.6208V5.4992C29.6208 5.30719 29.6048 5.11519 29.5728 4.92319C29.5408 4.73119 29.4808 4.55519 29.3928 4.39519C29.3128 4.23519 29.1968 4.10719 29.0448 4.01119C28.8928 3.91519 28.6928 3.86719 28.4448 3.86719C28.1248 3.86719 27.8568 3.94719 27.6408 4.10719C27.4248 4.26719 27.2648 4.48319 27.1608 4.75519C27.0568 5.02719 27.0048 5.32719 27.0048 5.65519V8.7752H25.3248Z" fill="black"/>
<path d="M32.5425 8.7752V2.45119H34.0545L34.1985 3.15919C34.3585 2.93519 34.5345 2.76719 34.7265 2.65519C34.9265 2.53519 35.1265 2.45519 35.3265 2.41519C35.5265 2.37519 35.7105 2.35519 35.8785 2.35519C36.2545 2.35519 36.5865 2.42719 36.8745 2.57119C37.1625 2.71519 37.3945 2.94719 37.5705 3.26719C37.7385 3.03519 37.9225 2.85519 38.1225 2.72719C38.3225 2.59119 38.5345 2.49519 38.7585 2.43919C38.9825 2.38319 39.2105 2.35519 39.4425 2.35519C39.9305 2.35519 40.3225 2.45919 40.6185 2.66719C40.9225 2.86719 41.1425 3.14719 41.2785 3.50719C41.4225 3.86719 41.4945 4.28719 41.4945 4.76719V8.7752H39.8145V5.21119C39.8145 5.06719 39.8065 4.91919 39.7905 4.76719C39.7745 4.61519 39.7345 4.47119 39.6705 4.33519C39.6145 4.19919 39.5265 4.08719 39.4065 3.99919C39.2945 3.91119 39.1345 3.86719 38.9265 3.86719C38.7265 3.86719 38.5585 3.91119 38.4225 3.99919C38.2865 4.08719 38.1785 4.20719 38.0985 4.35919C38.0185 4.50319 37.9585 4.66319 37.9185 4.83919C37.8865 5.00719 37.8705 5.17919 37.8705 5.35519V8.7752H36.1905V5.19919C36.1905 5.06319 36.1825 4.91919 36.1665 4.76719C36.1505 4.61519 36.1145 4.47119 36.0585 4.33519C36.0025 4.19919 35.9105 4.08719 35.7825 3.99919C35.6625 3.91119 35.4945 3.86719 35.2785 3.86719C34.9825 3.86719 34.7545 3.95519 34.5945 4.13119C34.4425 4.29919 34.3425 4.50319 34.2945 4.74319C34.2465 4.97519 34.2225 5.19119 34.2225 5.39119V8.7752H32.5425Z" fill="black"/>
<path d="M42.7132 8.7752V2.45119H44.3932V8.7752H42.7132Z" fill="black"/>
<path d="M45.6769 8.7752V2.45119H47.2489L47.3329 3.18319C47.5089 2.96719 47.7089 2.79919 47.9329 2.67919C48.1649 2.55119 48.3969 2.46319 48.6289 2.41519C48.8689 2.36719 49.0849 2.34319 49.2769 2.34319C49.8849 2.34319 50.3569 2.47519 50.6929 2.73919C51.0369 3.00319 51.2809 3.35919 51.4249 3.80719C51.5769 4.24719 51.6529 4.73919 51.6529 5.28319V8.7752H49.9729V5.4992C49.9729 5.30719 49.9569 5.11519 49.9249 4.92319C49.8929 4.73119 49.8329 4.55519 49.7449 4.39519C49.6649 4.23519 49.5489 4.10719 49.3969 4.01119C49.2449 3.91519 49.0449 3.86719 48.7969 3.86719C48.4769 3.86719 48.2089 3.94719 47.9929 4.10719C47.7769 4.26719 47.6169 4.48319 47.5129 4.75519C47.4089 5.02719 47.3569 5.32719 47.3569 5.65519V8.7752H45.6769Z" fill="black"/>
<rect x="42.7109" width="1.67969" height="1.49609" fill="black"/>
</svg>
